<svg xmlns="http://www.w3.org/2000/svg">
    <symbol id="gg-log-in" width="24" height="24" viewBox="0 0 24 24" fill="none" >
        <path d="M15.4857 20H19.4857C20.5903 20 21.4857 19.1046 21.4857 18V6C21.4857 4.89543 20.5903 4 19.4857 4H15.4857V6H19.4857V18H15.4857V20Z" fill="currentColor" />
        <path d="M10.1582 17.385L8.73801 15.9768L12.6572 12.0242L3.51428 12.0242C2.96199 12.0242 2.51428 11.5765 2.51428 11.0242C2.51429 10.4719 2.962 10.0242 3.51429 10.0242L12.6765 10.0242L8.69599 6.0774L10.1042 4.6572L16.4951 10.9941L10.1582 17.385Z" fill="currentColor" />
    </symbol>    
    <symbol id="gg-log-out" width="24" height="24" viewBox="0 0 24 24" fill="none" >
        <path d="M8.51428 20H4.51428C3.40971 20 2.51428 19.1046 2.51428 18V6C2.51428 4.89543 3.40971 4 4.51428 4H8.51428V6H4.51428V18H8.51428V20Z" fill="currentColor" />
        <path d="M13.8418 17.385L15.262 15.9768L11.3428 12.0242L20.4857 12.0242C21.038 12.0242 21.4857 11.5765 21.4857 11.0242C21.4857 10.4719 21.038 10.0242 20.4857 10.0242L11.3236 10.0242L15.304 6.0774L13.8958 4.6572L7.5049 10.9941L13.8418 17.385Z" fill="currentColor" />
    </symbol>
    <symbol id="gg-user-add" width="24" height="24" viewBox="0 0 24 24" fill="none" >
        <path fill-rule="evenodd" clip-rule="evenodd" d="M8 11C10.2091 11 12 9.20914 12 7C12 4.79086 10.2091 3 8 3C5.79086 3 4 4.79086 4 7C4 9.20914 5.79086 11 8 11ZM8 9C9.10457 9 10 8.10457 10 7C10 5.89543 9.10457 5 8 5C6.89543 5 6 5.89543 6 7C6 8.10457 6.89543 9 8 9Z" fill="currentColor" />
        <path d="M11 14C11.5523 14 12 14.4477 12 15V21H14V15C14 13.3431 12.6569 12 11 12H5C3.34315 12 2 13.3431 2 15V21H4V15C4 14.4477 4.44772 14 5 14H11Z" fill="currentColor" />
        <path d="M18 7H20V9H22V11H20V13H18V11H16V9H18V7Z" fill="currentColor" />
    </symbol>
    <symbol id="gg-external-link" width="24" height="24" viewBox="0 0 24 24" fill="none">
        <path d="M15.6396 7.02527H12.0181V5.02527H19.0181V12.0253H17.0181V8.47528L12.1042 13.3892L10.6899 11.975L15.6396 7.02527Z" fill="currentColor" />
        <path d="M10.9819 6.97473H4.98193V18.9747H16.9819V12.9747H14.9819V16.9747H6.98193V8.97473H10.9819V6.97473Z" fill="currentColor" />
    </symbol>
</svg>